<svg width="391" height="90" viewBox="0 0 391 90" fill="none" xmlns="http://www.w3.org/2000/svg">
<g clip-path="url(#clip0_2940_436)">
<path d="M213.2 70.03C208.13 70.03 204.42 65.92 204.42 60.85V39.23H198.14V29.57H204.92L204.82 19.76L214.97 16.25V29.57H223.75V39.23H214.97V60.19H222.74V70.03H213.2Z" fill="black"/>
<path d="M178.65 70.4899C173.34 70.4899 169.31 68.7699 166.41 64.0999L165.85 64.1799C165.93 66.1899 166.01 67.9399 166.01 70.0299H155.3V16.2999L166.17 12.6299V25.8599C166.17 29.7199 166.17 31.8199 165.77 35.4399L166.41 35.5999C169.39 30.7699 173.82 28.5999 178.97 28.5999C189.92 28.5999 196.76 37.9399 196.76 49.8499C196.76 61.7599 189.68 70.4899 178.64 70.4899H178.65ZM176.08 60.7499C182.12 60.7499 185.98 56.2099 185.98 49.6899C185.98 43.1699 182.12 38.3399 176.08 38.3399C170.04 38.3399 165.94 43.0899 165.94 49.7699C165.94 56.4499 169.88 60.7499 176.08 60.7499Z" fill="black"/>
<path d="M123.12 70.4897C112.41 70.4897 105.33 61.4497 105.33 49.6897C105.33 37.9297 112.33 28.5997 123.52 28.5997C128.59 28.5997 132.86 30.6096 135.76 35.3596L136.32 35.1996C136 31.8196 136 29.4796 136 25.8596V16.3097L146.87 12.6396V70.0497H136.16C136.16 68.0397 136.16 66.1997 136.32 64.1897L135.76 64.0297C132.78 68.7797 128.43 70.4997 123.12 70.4997V70.4897ZM126.1 60.7497C132.3 60.7497 136.24 56.3797 136.24 49.6897C136.24 42.9997 132.29 38.3397 126.1 38.3397C119.98 38.4197 116.2 43.2497 116.2 49.7697C116.2 56.2897 119.98 60.7497 126.1 60.7497Z" fill="black"/>
<path d="M384.8 67.6097H385.67V70.0497H386.17V67.6097H387.05V67.1797H384.8V67.6097Z" fill="black"/>
<path d="M390.45 67.1797H390.04H389.93L389.04 69.2797L388.15 67.1797H388.04H387.64H387.54V70.0497H388.04V68.0897L388.91 70.0497H389.17L390.04 68.0897V70.0497H390.54V67.1797H390.45Z" fill="black"/>
<path d="M248.69 12.6196L241.32 15.0496V70.0396H270.34V63.6696H248.69V12.6196Z" fill="black"/>
<path d="M85.41 4.32986C87.49 6.33986 88.8599 8.97987 89.1799 11.8699C89.1799 13.0699 88.86 13.8799 88.13 15.3899C87.4 16.9099 78.51 32.2999 75.85 36.5599C74.33 39.0599 73.53 42.0199 73.53 44.8999C73.53 47.7799 74.34 50.7499 75.85 53.2399C78.49 57.4999 87.4 72.9599 88.13 74.5099C88.86 76.0299 89.1799 76.7599 89.1799 77.9599C88.8599 80.8499 87.59 83.4899 85.48 85.4199C83.47 87.4999 80.8299 88.8699 78.0199 89.1199C76.8199 89.1199 76.01 88.7999 74.57 88.0699C73.13 87.3399 31.09 63.0399 31.09 63.0399C31.58 67.0499 33.34 70.8999 36.23 73.7099C36.79 74.2699 37.3599 74.7599 37.9899 75.2299C37.4999 75.4699 16.75 87.5899 15.21 88.3199C13.69 89.0499 12.96 89.3699 11.69 89.3699C8.79996 89.0499 6.15995 87.7799 4.22995 85.6699C2.14995 83.6599 0.779961 81.0199 0.459961 78.1299C0.529961 76.9299 0.879949 75.7299 1.50995 74.6799C2.23995 73.1599 11.1299 57.6699 13.7899 53.4099C15.3099 50.9099 16.11 48.0299 16.11 45.0699C16.11 42.1099 15.2999 39.2199 13.7899 36.7299C11.1499 32.3299 2.16995 16.8299 1.50995 15.3199C0.869949 14.2699 0.559961 13.0699 0.459961 11.8699C0.779961 8.97987 2.04996 6.33986 4.15996 4.32986C6.16996 2.24986 8.80995 0.949883 11.7 0.629883C12.9 0.699883 14.1 1.04987 15.22 1.67987C16.49 2.23987 58.44 26.9799 58.44 26.9799C57.95 22.1799 55.59 17.8399 51.72 14.8799C52.02 14.7199 72.8499 2.36987 74.3999 1.70987C75.4499 1.06987 76.65 0.759882 77.92 0.659882C80.73 0.979882 83.38 2.24986 85.38 4.35986L85.4299 4.33987L85.41 4.32986ZM46.31 52.4899L52.31 46.4699C53.14 45.6299 53.14 44.3799 52.31 43.5099L46.31 37.4899C45.48 36.6499 44.2299 36.6499 43.3599 37.4899L37.3599 43.5099C36.5299 44.3499 36.5299 45.5999 37.3599 46.4699L43.3599 52.4899C44.0999 53.2299 45.44 53.2299 46.31 52.4899Z" fill="#FE6703"/>
<path d="M322.85 62.9299L322.46 63.0099C322.54 65.5199 322.54 67.3599 322.54 70.0199H315.95V15.0399L322.62 12.6099V29.3499C322.62 33.1099 322.62 34.9199 322.38 38.3699L322.85 38.4499C325.75 33.0399 330.54 30.2099 336.58 30.2099C347.17 30.2099 353.76 38.9899 353.76 50.5999C353.76 62.2099 347.01 70.4799 336.19 70.4799C330.15 70.4799 325.68 68.3199 322.86 62.9099L322.85 62.9299ZM347.17 50.5399C347.17 42.3799 342.54 36.2599 335.01 36.2599C327.48 36.2599 322.3 42.1399 322.3 50.6099C322.3 59.0799 327.16 64.5299 335.01 64.5299C342.62 64.4499 347.17 58.6899 347.17 50.5299V50.5399Z" fill="black"/>
<path d="M357.21 64.2699L361.76 60.1099C364.3 63.0399 367.54 64.9699 371.24 64.9699C375.56 64.9699 378.72 62.8699 378.72 59.0199C378.72 55.1699 375.02 54.0099 370.86 52.8499C364.69 51.0799 359.07 48.5299 359.07 41.5199C359.07 34.5099 364.77 30.1899 372.17 30.1899C376.87 30.1899 380.8 31.8099 383.88 35.1999L379.56 39.3599C377.48 36.9699 375.01 35.7399 372.08 35.7399C368.07 35.7399 365.14 37.7399 365.14 41.2899C365.14 44.8399 368.69 46.0699 372.77 47.2199C379.09 49.0699 384.79 51.3799 384.79 58.6999C384.79 66.0199 378.93 70.5099 370.99 70.5099C365.52 70.5099 360.58 68.1199 357.19 64.2699H357.21Z" fill="black"/>
<path d="M306.48 43.9897V70.0397H299.82C299.82 67.3097 299.82 65.6397 299.98 62.9897L299.6 62.9397C296.63 68.4697 293.52 70.4897 287.43 70.4897C279.88 70.4897 275.61 64.6697 275.61 59.6097C275.61 52.8497 278.68 47.8297 289.85 47.8297H302.27L300.1 49.0097V44.7397C300.1 40.3197 298.11 36.2597 291.43 36.2597C284.75 36.2597 280.44 39.9597 280.39 39.9997L277.49 34.9397C277.49 34.9397 283.43 30.1797 292.07 30.1797C299.8 30.1797 306.49 34.4397 306.49 43.9897H306.48ZM289.58 53.1197C283.24 53.1197 281.68 54.9297 281.68 58.8797C281.68 63.0497 285.17 64.8097 289.55 64.8097C296.73 64.8097 300.06 58.9097 300.06 53.1197H289.58Z" fill="black"/>
</g>
<defs>
<clipPath id="clip0_2940_436">
<rect width="391" height="90" fill="white"/>
</clipPath>
</defs>
</svg>
